<svg width="64" height="64" viewBox="0 0 64 64" xmlns="http://www.w3.org/2000/svg">
  <g transform="translate(-7, -7) scale(0.5) translate(73, 71)">
    <!-- Center pentagon -->
    <polygon points="7,7 7,39 32.235093381718414,58.677145677560844 58.747243710041424,40.75771809271869 37.43380852144492,16.88854381999832" fill="#62a0ea" fill-opacity="0.5" stroke="#1a5fb4" stroke-width="4"/>
    <!-- 5 rotated pentagons -->
    <polygon points="7,7 7,39 32.235093381718414,58.677145677560844 58.747243710041424,40.75771809271869 37.43380852144492,16.88854381999832" fill="#024d9e" fill-opacity="0.5" stroke="#1a5fb4" stroke-width="4" transform="rotate(72 7 7)"/>
    <polygon points="7,7 7,39 32.235093381718414,58.677145677560844 58.747243710041424,40.75771809271869 37.43380852144492,16.88854381999832" fill="#4299e0" fill-opacity="0.5" stroke="#1a5fb4" stroke-width="4" transform="rotate(144 7 7)"/>
    <polygon points="7,7 7,39 32.235093381718414,58.677145677560844 58.747243710041424,40.75771809271869 37.43380852144492,16.88854381999832" fill="#99c1f1" fill-opacity="0.5" stroke="#1a5fb4" stroke-width="4" transform="rotate(216 7 7)"/>
    <polygon points="7,7 7,39 32.235093381718414,58.677145677560844 58.747243710041424,40.75771809271869 37.43380852144492,16.88854381999832" fill="#036fe2" fill-opacity="0.5" stroke="#1a5fb4" stroke-width="4" transform="rotate(288 7 7)"/>
  </g>
</svg>
