<svg width="64" height="64" viewBox="0 0 64 64" xmlns="http://www.w3.org/2000/svg">
  <polygon points="7,7 7,39 32.235093381718414,58.677145677560844 58.747243710041424,40.75771809271869 37.43380852144492,16.88854381999832" fill="#62a0ea" stroke="#1a5fb4" stroke-width="2"/>
<path transform="translate(6, 10)" d="M24 22C25.1046 22 26 22.8954 26 24C26 25.1046 25.1046 26 24 26C22.8954 26 22 25.1046 22 24C22 22.8954 22.8954 22 24 22Z" fill="#024D9E"/>
<path transform="translate(6, 10)" fill-rule="evenodd" clip-rule="evenodd" d="M25.0009 26.829L25 30H23L23.0001 26.8293C23.3128 26.9399 23.6494 27 24 27C24.351 27 24.6879 26.9397 25.0009 26.829ZM30 23V25L26.829 25.0009C26.9397 24.6879 27 24.351 27 24C27 23.6494 26.9399 23.3128 26.8293 23.0001L30 23ZM21.1707 23.0001C21.0601 23.3128 21 23.6494 21 24C21 24.351 21.0603 24.6879 21.171 25.0009L18 25V23L21.1707 23.0001ZM25 18L25.0009 21.171C24.6879 21.0603 24.351 21 24 21C23.6494 21 23.3128 21.0601 23.0001 21.1707L23 18H25Z" fill="#036FE2"/>
</svg>
